# Blender v2.77 (sub 0) OBJ File: 'Frame.blend'
# www.blender.org
mtllib Frame.mtl
o Plane
v -2.071286 -2.072385 -0.000130
v -2.071286 -1.636227 -0.000103
v -1.635128 -1.636227 -0.000103
v -1.635128 -2.072385 -0.000130
v 1.635128 -2.072385 -0.000130
v 2.071286 -1.636227 -0.000103
v 2.071286 -2.072385 -0.000130
v -2.071286 2.070188 0.000130
v -2.071286 1.634030 0.000102
v 2.071286 1.634030 0.000102
v 1.635128 -1.636227 -0.000103
v -1.635128 2.070188 0.000130
v -1.635128 1.634030 0.000102
v 1.635128 2.070188 0.000130
v 2.071286 2.070188 0.000130
v 1.635128 1.634030 0.000102
vn 0.0000 0.0001 -1.0000
usemtl Material.001
s off
f 2//1 3//1 4//1 1//1
f 9//1 13//1 3//1 2//1
f 3//1 11//1 5//1 4//1
f 11//1 6//1 7//1 5//1
f 8//1 12//1 13//1 9//1
f 16//1 10//1 6//1 11//1
f 12//1 14//1 16//1 13//1
f 14//1 15//1 10//1 16//1
o Plane.001
v 2.071286 -2.072385 0.000225
v 2.071286 -1.636227 0.000197
v 1.635128 -1.636227 0.000177
v 1.635128 -2.072385 0.000205
v -1.635128 -2.072385 0.000055
v -2.071286 -1.636227 0.000007
v -2.071286 -2.072385 0.000035
v 2.071286 2.070188 -0.000035
v 2.071286 1.634030 -0.000007
v -2.071286 1.634030 -0.000197
v -1.635128 -1.636227 0.000028
v 1.635128 2.070188 -0.000055
v 1.635128 1.634030 -0.000027
v -1.635128 2.070188 -0.000205
v -2.071286 2.070188 -0.000225
v -1.635128 1.634030 -0.000177
vn -0.0000 0.0001 1.0000
usemtl Material.002
s off
f 18//2 19//2 20//2 17//2
f 25//2 29//2 19//2 18//2
f 19//2 27//2 21//2 20//2
f 27//2 22//2 23//2 21//2
f 24//2 28//2 29//2 25//2
f 32//2 26//2 22//2 27//2
f 28//2 30//2 32//2 29//2
f 30//2 31//2 26//2 32//2
